<?xml version="1.0" encoding="utf-8"?>
<!-- Generator: Adobe Illustrator 16.0.0, SVG Export Plug-In . SVG Version: 6.00 Build 0)  -->
<!DOCTYPE svg PUBLIC "-//W3C//DTD SVG 1.1//EN" "http://www.w3.org/Graphics/SVG/1.1/DTD/svg11.dtd">
<svg version="1.1" xmlns="http://www.w3.org/2000/svg" xmlns:xlink="http://www.w3.org/1999/xlink" x="0px" y="0px" width="215px"
	 height="208.908px" viewBox="0 0 215 208.908" enable-background="new 0 0 215 208.908" xml:space="preserve">
<g id="Calque_1" display="none">
</g>
<g id="Calque_2">
</g>
<g id="Calque_3">
</g>
<g id="Calque_2_-_copie">
</g>
<g id="Calque_4">
</g>
<g id="Calque_3_-_copie">
</g>
<g id="Calque_7">
</g>
<g id="Calque_8">
</g>
<g id="Calque_9">
</g>
<g id="logo">
	<g>
		<g>
			<g>
				<g>
					<path fill="#FFFFFF" d="M196.419,151.371c-9.9-6.42-14.82-48.98-14.82-48.98s1.49-55.6-39.51-72.859
						c-7.53-3.16-16.49-5.04-27.15-5.04s-19.63,1.88-27.15,5.04c-15.35,6.46-24.739,18.29-30.489,30.569
						c-9.601,20.521-9.021,42.29-9.021,42.29s-4.93,42.561-14.819,48.98c-9.681,6.29,10.02,7.94,18.42,0.52
						c-4.261,3.931-18.78,13.16-18.78,13.16c0.24,8.48,31.87,5.73,37.21,0.15c0,0-6.94,11.88-14.4,11.88
						c-7.449,0,20.66,8.03,28.69,0c6.42-6.42,14.939-11.55,18.1-13.35c0.79-0.46,1.25-0.7,1.25-0.7l0.04-0.47l0.13-1.66
						c-0.52-0.24-1.04-0.471-1.55-0.74l-0.14,1.689l-0.01,0.181c-0.381,0.21-0.881,0.5-1.48,0.859
						c-3.75,2.19-11.45,7.021-17.479,13.061c-2.021,2.02-6.011,3.1-11.521,3.1c-4.4,0-8.71-0.68-11.77-1.37
						c6.35-2.92,11.279-11.239,11.529-11.67l2.861-4.892c-0.539-0.234-0.955-0.605-1.269-1.049
						c-0.094-0.005-0.181-0.021-0.273-0.027l-3.869,4.048c-2.41,2.53-12.53,4.75-21.65,4.75c-6.699,0-11.489-1.2-12.56-3.06
						c3.36-2.16,14.31-9.29,18.03-12.71l-2.16-2.391c-3.521,3.12-9.46,4.521-13.771,4.521c-2.909,0-4.189-0.58-4.54-0.851
						c0.12-0.229,0.53-0.779,1.83-1.619c10.23-6.65,15.03-45.721,15.54-50.16l0.021-0.12l-0.01-0.101
						c-0.011-0.369-0.74-37.109,20.899-59.319c6.021-6.19,13.23-10.7,21.561-13.5c6.8-2.29,14.35-3.44,22.6-3.44
						s15.8,1.15,22.59,3.44c8.32,2.8,15.53,7.3,21.55,13.49c21.631,22.199,20.92,58.96,20.91,59.329v0.101l0.01,0.12
						c0.511,4.439,5.311,43.51,15.54,50.16c1.301,0.84,1.71,1.39,1.83,1.619c-0.35,0.271-1.62,0.851-4.529,0.851h-0.011
						c-4.31,0-10.239-1.4-13.77-4.521l-2.15,2.391c3.521,3.25,13.58,9.84,17.46,12.34c-2.109,0.96-7.729,2.02-15.54,2.02
						c-8.779,0-16.229-1.369-18.109-3.34l-4.361-4.563c-0.255,0.553-0.649,1.028-1.183,1.365l2.994,5.118
						c0.25,0.431,5.18,8.75,11.54,11.67c-3.07,0.69-7.37,1.37-11.771,1.37c-5.52,0-9.5-1.08-11.53-3.1
						c-5.14-5.14-11.489-9.43-15.59-11.94c20.87-7.229,31.311-27.21,31.311-32.71c0-4.68-7.61-10.43-21.051-20.189
						c-4.31-3.12-8.77-6.37-13.22-9.811c-15.55-12.06-16.43-42.02-16.439-42.31l-1.601,0.03l-1.609,0.04
						c0.01,0.21,0.029,1.21,0.149,2.779c0.601,8.03,3.51,31.141,17.53,42c4.5,3.48,8.97,6.73,13.3,9.86
						c9.7,7.06,19.72,14.33,19.72,17.6c0,4.59-10.56,24.4-31.489,30.4c-0.521,0.149-1.04,0.29-1.57,0.42l0.07,0.91
						c0,0,0.329,0.17,0.909,0.5c0.49,0.27,1.15,0.66,1.95,1.13h0.01c3.881,2.33,10.96,6.9,16.48,12.42c8.04,8.03,36.15,0,28.69,0
						c-7.45,0-14.4-11.88-14.4-11.88c5.34,5.58,37.27,4.649,37.21-0.15c0,0-14.521-9.229-18.771-13.16
						C186.389,159.312,206.089,157.661,196.419,151.371z"/>
					<path fill="#FFFFFF" d="M197.288,150.031c-7.569-4.91-12.72-36-14.079-47.71c0.05-2.76,0.359-38.76-21.811-61.54
						c-4.53-4.65-9.68-8.4-15.439-11.25c-8.931-4.42-19.301-6.66-31.021-6.66s-22.09,2.24-31.02,6.66
						c-5.761,2.85-10.91,6.6-15.44,11.25c-22.17,22.78-21.87,58.78-21.81,61.54c-1.37,11.71-6.521,42.8-14.091,47.71
						c-2.649,1.729-3.739,3.479-3.22,5.21c0.811,2.75,5.16,3.17,7.68,3.17c1.101,0,2.33-0.09,3.631-0.26
						c-4.36,2.96-8.36,5.5-8.431,5.55l-0.77,0.49l0.029,0.909c0.12,4.48,5.801,6.961,16,6.961c5.82,0,12.601-0.881,17.631-2.461
						c-2.591,2.98-5.99,5.881-9.221,5.881c-2.35,0-2.85,1.01-2.85,1.89c0,0.91,0,2.04,6.75,3.52c2.32,0.511,6.99,1.37,12.13,1.37
						c6.47,0,11.11-1.359,13.8-4.04c7.271-7.27,17.49-12.979,18.82-13.699c0.01,0,0.01,0,0.01,0c0.09-0.051,0.13-0.08,0.141-0.08
						l0.779-0.41l0.07-0.84l0.13-1.641c-0.53-0.2-1.05-0.43-1.57-0.649c-0.52-0.24-1.04-0.471-1.55-0.74l-0.14,1.689l-0.01,0.181
						c-0.381,0.21-0.881,0.5-1.48,0.859c-3.75,2.19-11.45,7.021-17.479,13.061c-2.021,2.02-6.011,3.1-11.521,3.1
						c-4.4,0-8.71-0.68-11.77-1.37c6.35-2.92,11.279-11.239,11.529-11.67l2.861-4.892c-0.539-0.234-0.955-0.605-1.269-1.049
						c-0.094-0.005-0.181-0.021-0.273-0.027l-3.869,4.048c-2.41,2.53-12.53,4.75-21.65,4.75c-6.699,0-11.489-1.2-12.56-3.06
						c3.36-2.16,14.31-9.29,18.03-12.71l-2.16-2.391c-3.521,3.12-9.46,4.521-13.771,4.521c-2.909,0-4.189-0.58-4.54-0.851
						c0.12-0.229,0.53-0.779,1.83-1.619c10.23-6.65,15.03-45.721,15.54-50.16l0.021-0.12l-0.01-0.101
						c-0.011-0.369-0.74-37.109,20.899-59.319c6.021-6.19,13.23-10.7,21.561-13.5c6.8-2.29,14.35-3.44,22.6-3.44
						s15.8,1.15,22.59,3.44c8.32,2.8,15.53,7.3,21.55,13.49c21.631,22.199,20.92,58.96,20.91,59.329v0.101l0.01,0.12
						c0.511,4.439,5.311,43.51,15.54,50.16c1.301,0.84,1.71,1.39,1.83,1.619c-0.35,0.271-1.62,0.851-4.529,0.851h-0.011
						c-4.31,0-10.239-1.4-13.77-4.521l-2.15,2.391c3.521,3.25,13.58,9.84,17.46,12.34c-2.109,0.96-7.729,2.02-15.54,2.02
						c-8.779,0-16.229-1.369-18.109-3.34l-4.361-4.563c-0.255,0.553-0.649,1.028-1.183,1.365l2.994,5.118
						c0.25,0.431,5.18,8.75,11.54,11.67c-3.07,0.69-7.37,1.37-11.771,1.37c-5.52,0-9.5-1.08-11.53-3.1
						c-5.14-5.14-11.489-9.43-15.59-11.94c-0.68-0.41-1.3-0.779-1.84-1.1c-0.63-0.36-1.14-0.67-1.53-0.88l-0.029-0.33
						c-0.521,0.149-1.04,0.29-1.57,0.42c-0.521,0.12-1.05,0.25-1.58,0.35l0.12,1.561l0.1,0.05l0.67,0.36
						c0.03,0.01,0.551,0.29,1.44,0.8c3.27,1.88,11.43,6.87,17.54,12.979c2.68,2.681,7.32,4.04,13.8,4.04
						c5.14,0,9.8-0.859,12.13-1.37c6.74-1.479,6.74-2.609,6.74-3.52c0-0.88-0.49-1.89-2.85-1.89c-3.37,0-6.94-3.181-9.57-6.301
						c5.229,1.311,11.87,1.46,14.439,1.46c2.54,0,15.351-0.17,18.641-3.5c0.76-0.77,0.92-1.569,0.91-2.109l-0.011-0.87l-0.739-0.46
						c-0.07-0.05-4.061-2.59-8.431-5.55c1.3,0.17,2.54,0.26,3.63,0.26h0.011c2.52,0,6.859-0.42,7.68-3.17
						C201.028,153.511,199.948,151.761,197.288,150.031z"/>
				</g>
			</g>
			<g>
				<path fill="#FFFFFF" d="M102.568,160.161l-0.14,1.689l-0.01,0.181c-0.381,0.21-0.881,0.5-1.48,0.859
					c-12.64-6.439-23.68-19.569-28.04-26.939c-0.43,0.08-0.96,0.149-1.53,0.149c-0.819,0-1.729-0.13-2.64-0.5
					c-7.55-3.109-13.6-14.409-11.57-21.609c0.91-3.23,2.5-5.19,4.721-5.8c3.699-1.03,7.359,2.29,7.76,2.67l-1.101,1.17l-1.1,1.17
					c-0.69-0.65-3.03-2.39-4.71-1.92c-1.32,0.37-2.08,2.16-2.48,3.59c-1.56,5.53,3.79,15.32,9.7,17.75
					c0.45,0.2,0.931,0.25,1.38,0.25c-0.27-0.67-0.409-1.19-0.409-1.57h3.22C74.389,133.981,87.309,152.531,102.568,160.161z"/>
				<path fill="#FFFFFF" d="M162.129,131.301c0,5.5-10.44,25.48-31.311,32.71c-0.67,0.23-1.34,0.44-2.03,0.65h-0.01
					c-0.72,0.21-1.439,0.41-2.18,0.58c-3.61,0.899-7.5,1.399-11.66,1.399c-3.47,0-6.96-0.779-10.37-2.119c0,0,0,0-0.01,0
					c-0.62-0.24-1.24-0.511-1.86-0.79c-0.59-0.261-1.18-0.54-1.76-0.841c0.6-0.359,1.1-0.649,1.48-0.859l0.01-0.181l0.14-1.689
					c0.51,0.27,1.03,0.5,1.55,0.74c0.521,0.22,1.04,0.449,1.57,0.649c3.04,1.19,6.15,1.88,9.25,1.88c3.29,0,6.4-0.34,9.33-0.96
					c0.53-0.1,1.06-0.229,1.58-0.35c0.53-0.13,1.05-0.271,1.57-0.42c20.93-6,31.489-25.811,31.489-30.4
					c0-3.27-10.02-10.54-19.72-17.6c-4.33-3.13-8.8-6.38-13.3-9.86c-14.021-10.859-16.93-33.97-17.53-42
					c-0.12-1.569-0.14-2.569-0.149-2.779l1.609-0.04l1.601-0.03c0.01,0.29,0.89,30.25,16.439,42.31c4.45,3.44,8.91,6.69,13.22,9.811
					C154.519,120.871,162.129,126.621,162.129,131.301z"/>
			</g>
			<g>
				<path fill="#FFFFFF" d="M95.269,110.071c-1.13-0.05-2.17,0-3.1,0.13c-5.74,0.75-7.94,4.2-8.061,4.41l1.03,0.63l1.02,0.63
					c0.011-0.01,0.25-0.38,0.78-0.88c0.37-0.34,0.88-0.75,1.56-1.13c-0.1,0.3-0.18,0.62-0.22,0.95
					c-0.05,0.279-0.069,0.56-0.069,0.85c0,3.18,2.579,5.75,5.76,5.75c3.17,0,5.75-2.57,5.75-5.75c0-0.84-0.181-1.63-0.51-2.35
					c-0.051-0.11-0.101-0.221-0.16-0.32c0.29,0.07,0.58,0.13,0.88,0.21c0.79,0.21,1.62,0.45,2.49,0.75l0.39-1.14l0.39-1.15
					C100.129,110.621,97.498,110.151,95.269,110.071z M93.969,119.011c-1.851,0-3.351-1.5-3.351-3.35c0-0.42,0.08-0.84,0.23-1.21
					c0.34-0.87,1.02-1.55,1.89-1.89c0.38-0.16,0.8-0.24,1.23-0.24c0.34,0,0.68,0.05,0.99,0.149c0.68,0.21,1.26,0.63,1.67,1.19
					c0.43,0.56,0.68,1.25,0.68,2C97.309,117.511,95.809,119.011,93.969,119.011z"/>
			</g>
		</g>
	</g>
	<path fill="none" stroke="#FFFFFF" stroke-width="2" stroke-miterlimit="10" d="M78.881,104.626c0,0-7.266,2.313-11,3.661"/>
	<path fill="none" stroke="#FFFDFD" stroke-width="2" stroke-miterlimit="10" d="M93.509,126.841c-17.63,0-14.63-22.22-14.63-22.22
		h28.5C107.379,104.621,111.139,126.841,93.509,126.841z"/>
</g>
<g id="test">
</g>
<g id="test_-_copie" display="none">
</g>
<g id="izzdesign_test">
</g>
<g id="logo_1_">
</g>
</svg>
